<?xml version="1.0" standalone="no"?>
<!DOCTYPE svg PUBLIC "-//W3C//DTD SVG 20010904//EN"
 "http://www.w3.org/TR/2001/REC-SVG-20010904/DTD/svg10.dtd">
<svg version="1.0" xmlns="http://www.w3.org/2000/svg"
 width="512.000000pt" height="512.000000pt" viewBox="0 0 512.000000 512.000000"
 preserveAspectRatio="xMidYMid meet">

<g transform="translate(0.000000,512.000000) scale(0.100000,-0.100000)"
fill="#000000" stroke="none">
<path d="M2450 5114 c-490 -29 -924 -172 -1307 -430 -161 -108 -254 -185 -388
-319 -353 -352 -595 -796 -695 -1275 -27 -130 -50 -314 -50 -397 l0 -63 2550
0 2550 0 0 48 c0 26 -7 104 -15 174 -47 401 -185 780 -404 1109 -115 172 -193
268 -327 403 -409 409 -922 660 -1489 730 -127 16 -333 25 -425 20z m-1445
-1600 c105 -29 106 -29 112 -5 6 23 21 28 28 9 2 -7 6 -57 10 -110 7 -110 -3
-126 -34 -55 -38 87 -99 128 -193 128 -44 1 -72 -6 -107 -23 -186 -95 -167
-473 29 -556 46 -19 125 -19 173 1 l37 16 0 120 c0 130 -8 151 -56 151 -15 0
-24 6 -24 15 0 13 21 15 130 15 109 0 130 -2 130 -15 0 -9 -9 -15 -24 -15 -43
0 -51 -24 -56 -164 l-5 -131 -60 -24 c-84 -34 -233 -35 -319 -1 -71 27 -141
93 -174 163 -87 186 24 429 220 481 70 19 112 19 183 0z m831 -15 c156 -39
175 -245 29 -305 -25 -11 -45 -22 -45 -26 0 -10 126 -184 159 -221 30 -34 72
-57 101 -57 11 0 20 -7 20 -15 0 -12 -17 -15 -89 -15 l-89 0 -108 150 c-95
132 -111 150 -136 150 l-28 0 0 -124 c0 -135 2 -141 58 -152 71 -14 24 -24
-113 -24 -144 0 -179 8 -108 26 62 15 64 26 61 312 -3 253 -3 254 -27 273 -13
10 -34 19 -47 19 -13 0 -24 5 -24 10 0 14 330 13 386 -1z m974 -48 c0 -33 3
-66 6 -75 4 -10 1 -16 -10 -16 -9 0 -20 16 -27 41 -18 59 -45 69 -179 69
l-110 0 0 -125 0 -125 88 0 c106 0 134 12 146 63 18 69 31 35 34 -86 2 -96 0
-117 -12 -117 -8 0 -18 16 -23 37 -12 51 -39 63 -145 63 l-88 0 1 -112 c1
-169 -3 -162 104 -166 136 -5 165 8 236 110 30 41 32 11 4 -71 l-27 -81 -254
0 c-233 0 -304 8 -222 24 59 12 58 4 58 301 0 297 1 289 -58 301 -82 16 -11
24 223 24 l255 0 0 -59z m790 22 c0 -21 3 -55 6 -75 9 -55 -20 -52 -38 4 -18
59 -41 68 -170 68 l-108 0 0 -125 0 -125 83 0 c101 0 129 13 141 63 18 69 31
35 34 -86 2 -93 0 -117 -11 -117 -7 0 -18 17 -23 37 -12 50 -40 63 -141 63
l-83 0 0 -134 c0 -113 2 -135 16 -140 9 -3 55 -6 102 -6 105 0 142 16 190 80
19 25 39 47 45 49 13 5 4 -38 -23 -112 l-21 -57 -255 0 c-234 0 -307 8 -220
24 60 11 61 16 64 275 2 130 -1 254 -5 276 -8 37 -12 41 -51 49 -23 6 -42 13
-42 18 0 4 115 8 255 8 l255 0 0 -37z m626 -195 l189 -232 3 203 c2 139 -1
208 -9 217 -6 7 -26 16 -45 20 -69 13 -31 24 81 24 109 0 148 -10 88 -23 -60
-13 -58 0 -61 -332 -2 -230 -6 -305 -15 -305 -7 0 -104 113 -217 251 l-205
250 -3 -211 c-1 -131 2 -218 8 -230 6 -10 26 -22 45 -26 70 -13 33 -24 -80
-24 -113 0 -151 12 -80 26 20 3 40 15 45 25 6 10 10 123 10 264 0 246 0 246
-24 270 -13 13 -42 29 -65 36 -22 7 -41 16 -41 21 0 4 42 8 93 8 l94 0 189
-232z"/>
<path d="M1673 3463 c-22 -4 -23 -8 -23 -134 l0 -129 33 0 c82 0 152 46 163
108 9 48 -11 107 -45 131 -29 21 -90 33 -128 24z"/>
<path d="M10 2426 c0 -73 23 -263 46 -376 96 -480 345 -941 699 -1296 411
-412 943 -668 1525 -735 151 -17 441 -14 590 5 702 92 1320 453 1735 1011 276
370 437 776 490 1234 8 69 15 147 15 173 l0 48 -2550 0 -2550 0 0 -64z m1348
-248 l64 -22 18 24 c28 37 37 18 44 -102 4 -83 3 -108 -7 -108 -7 0 -20 22
-30 49 -32 91 -130 151 -222 136 -74 -11 -120 -48 -157 -122 -31 -63 -33 -74
-33 -173 0 -97 2 -110 30 -165 41 -81 90 -115 177 -122 90 -8 131 8 195 75 29
31 55 53 59 50 24 -25 -81 -138 -152 -162 -67 -23 -171 -21 -238 5 -71 26
-147 106 -172 181 -24 72 -24 188 0 253 70 184 242 267 424 203z m799 -19 c64
-32 93 -77 93 -144 0 -68 -29 -112 -97 -146 l-52 -27 75 -103 c98 -136 121
-158 172 -172 23 -6 42 -17 42 -24 0 -10 -23 -13 -89 -13 l-89 0 -108 150
c-102 141 -110 150 -141 150 l-33 0 0 -107 c0 -132 10 -157 63 -161 24 -2 37
-8 37 -18 0 -11 -25 -14 -145 -14 -122 0 -145 2 -145 15 0 10 10 15 29 15 60
0 61 5 61 297 0 294 -2 303 -62 303 -19 0 -28 5 -28 16 0 15 18 16 184 12 169
-5 189 -7 233 -29z m941 -46 c2 -58 0 -73 -11 -73 -8 0 -17 13 -20 30 -13 61
-34 70 -167 70 l-120 0 0 -120 0 -120 98 0 c108 0 123 7 136 63 15 61 26 23
26 -89 0 -85 -3 -115 -12 -112 -7 3 -15 18 -20 34 -12 46 -32 54 -135 54 l-93
0 0 -119 c0 -66 3 -126 6 -135 5 -13 25 -16 116 -16 129 0 153 9 194 75 16 25
35 45 43 45 7 0 11 -6 8 -12 -2 -7 -15 -46 -28 -85 l-23 -73 -253 0 c-218 0
-253 2 -253 15 0 10 10 15 29 15 60 0 61 5 61 300 0 295 -1 300 -61 300 -19 0
-29 5 -29 15 0 13 32 15 253 13 l252 -3 3 -72z m582 -168 c62 -135 116 -245
119 -245 3 0 56 109 116 243 l110 242 94 0 c67 0 96 -4 99 -12 2 -9 -7 -13
-25 -13 -16 0 -38 -6 -49 -14 -18 -14 -19 -29 -19 -284 0 -298 1 -302 61 -302
24 0 34 -5 34 -15 0 -13 -23 -15 -145 -15 -122 0 -145 2 -145 15 0 10 10 15
28 15 62 0 63 2 60 252 l-3 226 -115 -251 c-64 -139 -122 -252 -129 -252 -7 0
-64 112 -127 250 -63 137 -117 251 -119 254 -3 2 -5 -97 -5 -222 0 -248 2
-257 61 -257 19 0 29 -5 29 -15 0 -12 -19 -15 -115 -15 -96 0 -115 3 -115 15
0 10 10 15 29 15 58 0 61 16 61 298 l0 253 -25 24 c-13 14 -33 25 -45 25 -11
0 -20 7 -20 15 0 12 17 15 93 15 l93 0 114 -245z"/>
<path d="M1943 2133 c-10 -3 -13 -40 -13 -134 l0 -129 28 0 c50 0 107 21 139
52 85 82 25 219 -96 217 -25 0 -52 -3 -58 -6z"/>
</g>
</svg>
